<svg xmlns="http://www.w3.org/2000/svg" viewBox="0 0 128 128">
  <defs>
    <linearGradient id="silver" x1="0" y1="0" x2="1" y2="1">
      <stop offset="0" stop-color="#ffffff"/>
      <stop offset="0.18" stop-color="#dfe4ee"/>
      <stop offset="0.34" stop-color="#8fa7ff"/>
      <stop offset="0.44" stop-color="#315cff"/>
      <stop offset="0.52" stop-color="#e9edf5"/>
      <stop offset="0.72" stop-color="#8f96a3"/>
      <stop offset="0.88" stop-color="#d9f2ff"/>
      <stop offset="1" stop-color="#737b89"/>
    </linearGradient>
    <radialGradient id="blueGlow" cx="72%" cy="24%" r="62%">
      <stop offset="0" stop-color="#58c9ff" stop-opacity="0.5"/>
      <stop offset="0.38" stop-color="#315cff" stop-opacity="0.18"/>
      <stop offset="1" stop-color="#315cff" stop-opacity="0"/>
    </radialGradient>
  </defs>
  <circle cx="64" cy="64" r="59" fill="#050608"/>
  <circle cx="64" cy="64" r="56" fill="url(#blueGlow)"/>
  <circle cx="64" cy="64" r="51" fill="none" stroke="url(#silver)" stroke-width="8"/>
  <path d="M40 30c0-7 5-12 12-12h10c20 0 36 12 36 31 0 14-8 25-21 29-4 1-7 5-7 9v11c0 8-6 14-14 14h-4c-7 0-12-5-12-12V30Z" fill="url(#silver)"/>
  <g fill="#050608">
    <ellipse cx="54" cy="43" rx="5" ry="7"/>
    <ellipse cx="69" cy="39" rx="5" ry="7"/>
    <ellipse cx="80" cy="49" rx="5" ry="7"/>
    <ellipse cx="44" cy="51" rx="5" ry="7"/>
    <path d="M51 63c0-8 6-14 13-14s13 6 13 14c0 9-7 15-13 15S51 72 51 63Z"/>
  </g>
  <g fill="url(#silver)">
    <path d="M31 89c9 2 18 8 25 17l-7 7c-7-8-14-13-22-15-4-1-6-5-5-8 1-2 4-3 9-1Z"/>
    <path d="M97 89c-9 2-18 8-25 17l7 7c7-8 14-13 22-15 4-1 6-5 5-8-1-2-4-3-9-1Z"/>
  </g>
</svg>
